<?xml version="1.0" encoding="utf-8"?>
<!-- Generator: Adobe Illustrator 15.0.0, SVG Export Plug-In . SVG Version: 6.00 Build 0)  -->
<!DOCTYPE svg PUBLIC "-//W3C//DTD SVG 1.1//EN" "http://www.w3.org/Graphics/SVG/1.1/DTD/svg11.dtd">
<svg version="1.1" id="Layer_1" xmlns="http://www.w3.org/2000/svg" xmlns:xlink="http://www.w3.org/1999/xlink" x="0px" y="0px"
	 width="5512.898px" height="3149.371px" viewBox="0 0 5512.898 3149.371" enable-background="new 0 0 5512.898 3149.371"
	 xml:space="preserve">
<g>
	<path id="table" fill="#FFFFFF" stroke="#010101" d="M3337.696,357.461c0,0,274.86-42.167,750.569,125.264
		c475.713,167.399,641.393,343.106,706.125,472.188c64.75,129.091,97.229,318.246,38.43,418.84
		c-58.807,100.594-86.588,135.938-206.88,253.011c-120.312,117.113-239.821,239.698-348.108,368.575
		c-108.271,128.863-302.594,481.753-584.444,660.606c-281.831,178.845-663.39,193.951-844.14,126.084
		c-180.731-67.875-413.842-164.193-725.601-394.863c-311.774-230.657-545.378-544.764-903.967-416.331
		c-358.593,128.409-385.098,117.539-528.034,75.412c-153.236-45.178-412.466-184.329-478.718-337.087
		c-66.235-152.766-14.142-344.906,82.301-528.888c96.442-183.965,359.421-637.646,683.245-636.596
		c323.829,1.037,304.435,5.175,437.667-88.082c133.203-93.248,171.755-143.286,316.086-119.802
		c144.337,23.453,483.952,206.136,592.271,258.105c108.294,51.999,406.674,129.815,724.182-95.646
		C3119.135,448.215,3196.209,364.129,3337.696,357.461z"/>
</g>
<polygon id="outside" fill="none" stroke="#010101" points="432.473,1050.173 544.051,887.614 647.122,775.256 800.466,653.334 
	953.528,603.69 1167.129,599.817 1296.568,584.416 1432.757,506.157 1531.75,420.165 1635.247,385.147 1766.725,403.002 
	1916.839,462.129 2095.78,543.049 2276.9,621.089 2426.888,669.912 2565.384,691.953 2716.127,681.331 2826.444,658.266 
	3010.37,570.796 3145.504,484.943 3387.929,409.986 3689.98,429.946 4205.076,590.587 4456.791,731.06 4652.75,897.336 
	4760.963,1137.723 4759.422,1349.494 4676.812,1497.713 4505.965,1660.765 4313.604,1873.249 4166.168,2056.27 3936.263,2351.367 
	3667.126,2605.475 3288.581,2740.622 2962.626,2734.302 2450.199,2537.167 2099.556,2278.86 1781.819,2015.98 1538.684,1900.118 
	1285.006,1894.078 996.666,1972.834 752.692,1980.926 522.494,1883.906 367.177,1768.743 266.701,1676.92 243.845,1512.396 
	333.695,1267.715 "/>
<path id="inside2" fill="none" stroke="#010101" stroke-miterlimit="10" d="M1276.494,1420.883l-329.008,178.426
	c-14.421,8.276-37.401,12.526-51.597,6.443l-70.838-24.941c-13.547-6.756-37.98-8.646-52.207-3.434l-231.04,74.748
	c-4.344,1.722-17.418,6.666-33.356,12.824c-11.402,4.405-24.27,9.432-36.456,14.344c-15.757,6.353-30.375,12.514-39.209,16.895
	c-5.702,2.827-8.995,4.912-8.63,5.828c0.36,0.904,3.944,0.582,9.707-0.599c11.452-2.346,31.507-8.08,51.963-14.309
	c25.78-7.85,52.196-16.483,62.827-20.109l223.006-68.5c14.222-5.192,36.94-3.91,50.475,2.874l46.314,20.486
	c0,0,21.008,8.772,0.146,24.138c-33.167,19.254-29.691,58.312-29.691,58.312c-0.245,15.127-7.83,219.568-2.486,219.648
	c5.344,0.076,27.705-198.8,29.306-223.374c0,0,7.225-31.11,21.735-37.534l396.043-206.174c0,0,5.089-3.282,10.533-4.215
	c2.888-0.494,5.875-0.327,8.256,1.341c2.846,1.993,4.826,6.13,4.737,13.844l-3.032,151.183
	c-1.377,15.076-13.404,33.285-26.734,40.449l-91.495,49.121c-13.339,7.183-28.025,24.833-32.645,39.262l-32.832,116.914
	c-4.265,14.516-11.38,38.565-6.248,40.063c5.131,1.498,10.43-13.552,14.68-28.083l40.504-115.5
	c4.621-14.423,19.323-32.077,32.662-39.238l83.438-44.793c13.344-7.15,33.879-5.211,45.625,4.342l119.747,95.384
	c0,0,17.746,14.926,41.118,57.707c7.476,13.152,19.818,34.987,24.462,32.339s-6.42-22.432-13.913-35.587
	c-24.021-52.104-43.811-65.237-43.811-65.237l-116.389-100.479c-11.749-9.561-20.247-29.715-18.88-44.779l12.709-165.635
	c0.295-3.854,1.239-6.453,2.524-8.167c1.568-2.093,3.644-2.868,5.671-2.997c3.688-0.234,7.211,1.671,7.211,1.671l193.119,79.422
	c13.839,6.136,34.583,3.142,46.125-6.684l148.734-126.518c11.536-9.826,33.034-15.012,47.769-11.555l95.81,16.661
	c14.848,2.888,39.461,7.723,40.473,2.475c1.012-5.249-13.897-9.557-28.993-13.375l-103.87-24.87
	c-14.744-3.455-33.585-16.667-41.858-29.351l-55.711-78.875c-8.095-12.779-21.474-33.997-25.982-31.133
	c-4.511,2.867,2.589,16.668,10.174,30.269l52.685,86.435c8.278,12.68,5.627,31.067-5.905,40.896l-136.587,116.193
	c-11.53,9.812-32.281,12.808-46.127,6.665l-180.893-83.823c-5.141-2.382-7.853-5.515-9.118-8.751
	c-1.412-3.611-1.024-7.352-0.203-10.324c0.949-3.433,2.477-5.842,2.477-5.842l187.833-248.062
	c8.328-12.639,30.821-36.065,45.329-40.397l185.338-55.295c4.011-1.2,8.669-1.916,13.597-2.181
	c6.762-0.364,14.03,0.122,20.827,1.373c6.157,1.134,11.928,2.896,16.583,5.226l180.364,87.994c5.73,2.772,13.043,6.319,19.765,9.14
	c5.213,2.187,10.07,3.938,13.559,4.55c2.704,0.475,4.586,0.267,5.173-0.952c0.78-1.62-0.21-3.599-2.387-5.799
	c-2.571-2.599-6.798-5.506-11.716-8.497c-3.289-2.001-6.888-4.039-10.508-6.047l-178.89-94.487
	c-4.055-2.022-7.252-4.839-9.508-8.126c-1.981-2.887-3.237-6.136-3.711-9.527c-0.459-3.287-0.184-6.708,0.876-10.062
	c0.764-2.416,1.935-4.798,3.532-7.07l174.35-247.747c2.024-2.877,3.599-6.19,4.718-9.741c1.41-4.47,2.099-9.314,2.062-14.139
	c-0.041-5.376-0.983-10.727-2.836-15.501c-0.855-2.204-1.905-4.286-3.149-6.19l-105.73-162.985
	c-3.815-6.235-8.834-14.459-13.516-20.979c-2.585-3.6-5.066-6.679-7.188-8.618c-1.987-1.817-3.657-2.631-4.797-1.932
	c-1.139,0.699-1.562,2.093-1.442,4.004c0.165,2.615,1.348,6.2,3.11,10.302c2.103,4.892,5.03,10.519,8.038,16.114l98.034,163.692
	c2.068,3.168,3.599,6.825,4.594,10.722c0.717,2.804,1.156,5.732,1.32,8.691c0.235,4.242-0.095,8.549-0.986,12.648
	c-1.08,4.963-2.983,9.622-5.703,13.491l-171.35,243.53c-1.343,1.909-2.929,3.848-4.705,5.778c-2.88,3.129-6.259,6.235-9.907,9.154
	c-3.809,3.047-7.912,5.89-12.047,8.34c-5.324,3.154-10.701,5.658-15.572,7.11l-178.222,53.152
	c-14.507,4.331-28.004-4.408-29.991-19.406l-39.237-296.406c-0.856-6.483,0.187-13.867,2.614-20.908
	c2.039-5.914,5.054-11.584,8.742-16.277c2.09-2.66,4.396-5.005,6.863-6.902l23.167-17.808c4.056-3.116,9.058-5.29,14.398-6.491
	c4.772-1.073,9.815-1.37,14.693-0.87c5.823,0.597,11.413,2.333,16.028,5.241l75.149,42.671c5.076,3.194,10.585,6.586,15.564,9.238
	c3.842,2.046,7.368,3.652,10.137,4.386c2.702,0.717,4.682,0.604,5.528-0.738c0.82-1.3,0.461-2.961-0.771-4.86
	c-1.447-2.23-4.096-4.787-7.455-7.473c-3.734-2.986-8.346-6.13-13.153-9.156l-68.601-46.669c-2.913-1.835-5.199-3.986-6.85-6.322
	c-1.717-2.429-2.749-5.059-3.086-7.743c-0.309-2.454-0.038-4.954,0.818-7.389c1.265-3.598,3.808-7.054,7.648-10.01l75.582-67.962
	c3.933-3.261,6.758-7.596,8.789-12.179c2.161-4.877,3.42-10.034,4.154-14.474c1.106-6.702,1.015-11.769,1.015-11.769l6.057-96.604
	c-0.047-7.534-0.096-17.538-0.794-25.677c-0.413-4.814-1.052-8.976-2.053-11.588c-0.704-1.84-1.587-2.912-2.695-2.903
	c-1.232,0.01-2.249,0.84-3.094,2.302c-1.273,2.204-2.155,5.846-2.794,10.279c-0.775,5.377-1.192,11.92-1.519,18.479l-6.615,104.867
	c0,0-0.254,4.317-2.481,10.392c-1.236,3.37-3.079,7.281-5.822,11.296c-2.813,4.117-6.572,8.343-11.595,12.208l-160.096,128.814
	c-2.203,1.698-4.278,3.753-6.186,6.069c-3.937,4.78-7.16,10.672-9.321,16.839c-2.497,7.128-3.576,14.622-2.7,21.188l41.741,315.179
	c2.002,15-8.651,39.976-16.989,52.606l-196.918,245.46c-2.934,3.657-6.13,5.474-9.211,6.193s-6.048,0.342-8.524-0.388
	c-3.891-1.146-6.568-3.165-6.568-3.165l-1.834-1.302l-127.047-90.077c-6.101-4.293-12.056-11.183-15.693-18.675
	c-2.183-4.495-3.531-9.207-3.577-13.705c-0.032-3.229,0.607-6.348,2.092-9.197l68.181-289.673
	c2.936-11.182,6.564-19.458,10.764-25.8c4.831-7.295,10.417-12.031,16.571-15.685c5.493-3.261,11.439-5.661,17.706-8.249
	c0,0,10.66-4.07,38.876-9.048c40.71-10.081,72.064-20.834,72.064-20.834c6.537-2.238,15.043-5.139,22.189-8.111
	c4.587-1.908,8.615-3.846,11.203-5.658c2.205-1.544,3.363-2.996,2.927-4.259c-0.493-1.433-2.058-2.163-4.389-2.376
	c-3.357-0.309-8.305,0.454-13.927,1.725c-4.242,0.959-8.868,2.208-13.487,3.506c0,0-45.565,13.653-81.139,19.651
	c-23.267,4.115-30.552,5.154-30.552,5.154c-6.669,0.964-12.717-0.601-17.33-3.968c-3.106-2.267-5.562-5.352-7.122-9.033
	c-1.331-3.142-2.008-6.718-1.878-10.591l3.144-94.046c0.205-6.09-0.94-12.952-3.007-19.743c-1.21-3.979-2.737-7.933-4.494-11.693
	c-2.691-5.759-5.923-11.063-9.386-15.306l-65.579-74.81c-7.274-8.706-18.116-21.729-24.81-26.25
	c-2.231-1.506-4.002-2.068-5.027-1.209c-1.339,1.123-1.295,3.242-0.304,6.021c2.041,5.723,8.096,14.247,14.356,22.653l62.099,78.143
	c3.575,4.38,6.85,10.183,9.524,16.523c1.655,3.924,3.081,8.055,4.205,12.18c1.929,7.076,2.974,14.139,2.775,20.129l-2.49,61.778
	c0,0-3.644,44.062-14.376,86.244l-75.405,296.279c-0.874,1.678-1.823,3.146-2.829,4.403c-2.442,3.055-5.222,4.874-8.082,5.465
	c-2.095,0.433-4.234,0.207-6.316-0.675c-3.27-1.384-6.4-4.384-9.005-8.988L972.176,980.946
	c-3.935-6.956-10.805-14.195-18.554-20.099c-6.944-5.291-14.594-9.508-21.472-11.487l-132.785-38.312
	c-3.507-1.531-5.815-3.829-7.327-6.31c-0.979-1.608-1.625-3.293-2.043-4.897c-1.135-4.341-0.619-8.085-0.619-8.085l0.001-0.003
	l1.327-152.129v-0.001c0.107-9.167,0.277-21.989-0.795-30.682c-0.323-2.621-0.76-4.866-1.345-6.522
	c-0.676-1.916-1.552-3.045-2.681-3.057c-1.072-0.011-1.993,0.602-2.787,1.713c-0.795,1.112-1.464,2.724-2.033,4.711
	c-1.699,5.928-2.514,15.195-3.144,24.496l-9.516,140.17c-0.475,4.861-1.29,9.129-2.334,12.874c-1.044,3.744-2.319,6.964-3.713,9.73
	c-1.885,3.739-3.989,6.648-6.042,8.898c-5.27,5.778-10.199,7.214-10.199,7.214l-61.863,21.523
	c-6.032,1.984-13.732,4.508-20.514,7.144c-4.617,1.794-8.808,3.64-11.757,5.403c-3.04,1.818-4.76,3.548-4.266,5.043
	c0.611,1.846,3.037,2.467,6.568,2.282c2.767-0.145,6.213-0.784,9.996-1.717c4.664-1.149,9.84-2.746,14.89-4.412l55.61-16.435
	c7.876-2.074,15.079-3.153,21.181-3.67c4.403-0.373,8.233-0.454,11.33-0.404c5.481,0.087,8.666,0.581,8.666,0.581l143.201,41.31
	c6.201,1.793,13.03,5.404,19.402,9.978c8.582,6.159,16.337,14.065,20.618,21.634l129.599,240.678
	c1.471,2.601,2.484,5.159,3.052,7.623c0.735,3.192,0.723,6.226-0.013,8.989c-0.713,2.682-2.105,5.109-4.153,7.18
	c-2.477,2.503-5.912,4.484-10.266,5.764l-111.682,38.021c-3.448,1.013-7.618,0.873-12.122-0.066
	c-6.533-1.363-13.768-4.408-20.52-8.06c-8.206-4.437-15.698-9.769-20.349-14.062l-51.672-42.483
	c-6.259-5.793-15.392-12.754-24.596-18.939c-7.134-4.793-14.311-9.121-20.226-12.078l-52.399-26.248
	c-6.767-3.385-14.689-9.011-21.999-15.344c-7.309-6.333-14.005-13.373-18.32-19.588l-146.4-203.042
	c-3.387-4.878-7.643-11.021-11.828-16.5c-3.098-4.054-6.156-7.745-8.796-10.289c-2.88-2.774-5.261-4.186-6.651-3.217
	c-1.077,0.752-1.383,2.138-1.104,3.985c0.391,2.582,1.925,6.064,4.096,9.977c2.599,4.685,6.109,9.985,9.662,15.094l139.722,207.438
	c2.509,3.615,3.93,7.467,4.345,11.263c0.42,3.851-0.195,7.644-1.762,11.078c-2.203,4.829-6.289,8.946-12.02,11.506l-102.401,45.729
	c-4.836,2.147-10.659,3.376-16.741,3.73c-4.978,0.29-10.128-0.006-15.053-0.863c-6.266-1.09-12.165-3.088-16.876-5.943
	l-117.304-60.378l0.002-0.002c-13.068-7.619-35.25-19.213-37.937-14.589c-2.684,4.622,10.656,13.379,23.74,20.993v-0.002
	l128.412,71.116c0,0,2.852,2.223,4.771,5.896c1.157,2.216,1.976,4.96,1.624,8.062c-0.358,3.165-1.936,6.704-5.613,10.435
	l-79.053,84.711v0.001c-3.9,4.453-8.81,10.048-13.1,15.419c-3.337,4.178-6.301,8.221-8.124,11.487
	c-1.822,3.266-2.505,5.755-1.279,6.824c1.573,1.373,4.229,0.467,7.477-1.827c5.067-3.581,11.573-10.539,17.645-17.487
	l105.522-98.645c0,0,6.588-5.794,18.413-13.483c5.173-3.364,11.348-7.09,18.412-10.854l101.897-45.466
	c6.918-3.079,15.973-4.498,24.99-4.298s17.999,2.016,24.77,5.408l48.05,24.037c13.55,6.762,29.769,22.915,40.88,33.215
	l32.831,32.582c5.516,6.064,8.661,12.061,10.084,17.793c1.692,6.822,0.946,13.271-1.147,19.013
	c-3.488,9.569-10.716,17.176-16.622,21.278l-49.331,42.343c-12.428,8.632-34.793,13.519-49.703,10.826l-163.354-29.429
	c-4.969-0.896-10.628-0.787-16.371,0.145c-5.08,0.824-10.225,2.292-15.015,4.277c-6.046,2.506-11.528,5.838-15.6,9.742l-89.27,85.46
	c-10.942,10.489-33.888,25.485-48.508,29.429c-7.496,2.764-40.736,14.333-70.162,25.374c-17.667,6.629-33.959,13.067-42.479,17.295
	c-4.157,2.063-6.463,3.6-6.176,4.375c0.269,0.727,2.6,0.725,6.459,0.168c8.257-1.19,23.513-4.918,40.564-9.489
	c16.229-4.35,34.085-9.463,49.078-13.876c12.691-3.735,23.331-6.969,29.2-8.813c7.58-2.044,18.311-6.414,28.413-11.609
	c9.389-4.828,18.235-10.369,23.504-15.42l85.655-82.01c4.099-3.926,9.628-7.275,15.724-9.786c5.427-2.235,11.303-3.808,17.019-4.533
	c5.003-0.634,9.885-0.62,14.236,0.167l161.573,29.109c6.153,1.108,13.576,0.93,21.047-0.271c5.697-0.917,11.423-2.427,16.634-4.415
	c4.511-1.72,8.637-3.797,12.024-6.156l92.141-64.041c12.438-8.632,34.491-19.199,49.018-23.451l125.832-36.905
	c5.833-1.514,10.264-2.826,13.873-3.763c5.004-1.3,8.429-1.878,11.82-1.266c2.515,0.454,5.011,1.562,8.118,3.514
	c1.716,0.848,15.042,9.727,27.438,18.428l127.644,96.243c0.002,0,1.951,1.219,3.361,3.299c1.564,2.308,2.464,5.675-0.696,9.613
	C1283.172,1416.555,1280.561,1418.678,1276.494,1420.883"/>
<path id="inside4" fill="none" stroke="#010101" stroke-miterlimit="10" d="M2684.033,1666.667l335.508,172.504
	c13.711,6.39,29.725,22.626,31.761,37.62l50.399,198.127c3.96,14.602,10.479,38.821,15.634,37.414
	c5.157-1.408,2.444-16.688-0.786-31.92l-36.472-190.033c0,0-4.598-22.298,19.853-13.729c34.602,16.536,64.902-8.353,64.902-8.353
	c12.633-8.322,185.762-117.322,182.812-121.777c-2.95-4.459-179.812,89.196-201.01,101.729c0,0-18.43,12.084-31.916,3.721
	l-404.908-211.375c0,0-26.133-11.018-4.204-25.614l126.575-82.729c13.228-7.363,35.049-7.696,48.479-0.723l92.155,47.872
	c13.447,6.969,36.31,9.146,50.831,4.825l115.069-38.799c14.394-4.662,38.271-12.345,36.611-17.427
	c-1.656-5.081-17.07-0.972-31.472,3.708l-118.228,31.663c-14.519,4.313-37.388,2.125-50.82-4.854l-84.037-43.657
	c-13.432-6.989-23.402-25.044-22.137-40.134l11.267-152.676c0,0,2.32-23.07,24.479-66.494c6.647-13.589,17.725-36.096,12.918-38.438
	c-4.808-2.34-14.905,17.947-21.55,31.555c-29.487,49.215-29.182,72.964-29.182,72.964l-17.369,152.777
	c-1.271,15.096-13.128,33.478-26.342,40.841c0-0.002-143.967,82.886-143.967,82.886c-14.875,8.564-16.527-7.372-16.527-7.372
	l-43.282-204.275c-2.734-14.895-16.902-30.336-31.523-34.331l-188.344-51.515c-14.625-3.986-31.025-18.817-36.479-32.939
	l-40.253-88.521c-5.988-13.891-15.872-36.943-20.774-34.821c-4.906,2.125-0.059,16.866,5.298,31.487l38.02,99.809
	c5.46,14.128,5.168,37.137-0.639,51.122l-33.738,90.481c-5.989,13.891-15.975,36.899-11.062,39.012
	c4.91,2.107,12.304-11.535,19.262-25.469l41.686-92.24c5.803-13.987,22.485-22.164,37.107-18.181l172.975,47.302
	c14.604,3.99,28.774,19.441,31.511,34.336l32.753,196.664c3.168,19.028-16.723,19.701-16.723,19.701l-310.776-15.28
	c-15.132,0.247-47.164-5.121-58.924-14.663l-150.157-121.9c-6.347-5.146-12.565-13.369-17.266-22.208
	c-2.873-5.403-5.179-11.037-6.599-16.338c-0.559-2.088-0.981-4.125-1.246-6.075l-29.007-198.574
	c-1.014-6.772-2.317-15.564-3.932-23.085c-0.953-4.441-2.015-8.439-3.188-11.316c-1.229-3.015-2.582-4.799-4.062-4.576
	c-1.268,0.191-2.179,1.228-2.811,2.908c-1.001,2.662-1.304,6.937-1.22,12.02c0.084,5.083,0.556,10.974,1.103,16.866l22.814,201.021
	c0.453,2.702-0.066,5.423-1.387,8.11c-1.495,3.042-4.015,6.042-7.313,8.922c-4.017,3.508-9.188,6.839-15.064,9.855l-234.743,127.833
	c-13.322,7.165-24.59,13.109-22.053,17.812c2.539,4.703,16.652-2.595,30.758-9.189l228.979-115.492
	c5.267-2.474,10.65-3.188,15.938-2.725c5.434,0.477,10.767,2.198,15.771,4.535c8.725,4.074,16.451,10.019,21.967,14.499
	l144.376,117.229c11.758,9.539,12.147,25.612,0.883,35.713l-222.688,199.514c-3.297,2.952-7.425,5.419-11.975,7.314
	c-5.301,2.208-11.175,3.642-16.978,4.164c-6.265,0.563-12.446,0.064-17.732-1.666l-27.771-9.096
	c-14.388-4.716-26.633-20.938-27.188-36.071l-7.125-86.124c-0.253-6.774-0.609-14.148-1.403-20.21
	c-0.472-3.599-1.099-6.735-1.949-9.009c-0.916-2.448-2.092-3.896-3.617-3.842c-1.769,0.064-3.052,1.692-3.957,4.391
	c-0.911,2.718-1.438,6.521-1.692,10.906c-0.255,4.409-0.232,9.405-0.043,14.478l0.131,82.971c0.139,3.78-0.463,7.149-1.67,10.003
	c-1.724,4.076-4.68,7.101-8.471,8.77c-4.172,1.837-9.355,2.031-15.02,0.181l-98.741-24.109c-4.406-1.266-9.024-1.307-13.488-0.646
	c-5.399,0.798-10.571,2.622-14.867,4.547c-6.683,2.994-11.246,6.233-11.246,6.233l-83.205,49.464
	c-4.004,2.769-8.857,6.12-13.498,9.538c-3.152,2.321-6.205,4.674-8.827,6.896c-3.084,2.613-5.571,5.047-6.921,7.037
	c-1.064,1.57-1.421,2.865-0.804,3.756c0.562,0.811,1.481,1.211,2.688,1.272c1.662,0.086,3.871-0.468,6.452-1.472
	c2.239-0.871,4.759-2.08,7.444-3.503c4.158-2.203,8.714-4.921,13.245-7.693l90.342-53.66c0,0,4.181-2.507,11.173-4.095
	c3.478-0.789,7.651-1.352,12.352-1.265c4.75,0.088,10.038,0.839,15.69,2.687l196.654,59.6c5.27,1.719,11.422,2.219,17.658,1.666
	c4.492-0.397,9.027-1.341,13.308-2.767c6.024-2.008,11.541-4.973,15.717-8.722l236.776-212.168
	c11.262-10.11,37.896-15.394,53.03-15.625l313.749,24.254c16.697,1.287,15.883,18.583,15.883,18.583l-0.039,2.248l-2.771,155.715
	c-0.212,15.146-9.614,35.835-24.654,37.628l-277.683,107.002c-34.604,12.324-48.927,2.338-66.472-9.163
	c0,0-9.371-6.507-29.393-27.007c-31.275-27.939-57.835-47.771-57.835-47.771c-12.117-9.058-32.173-24.119-35.368-19.836
	c-3.191,4.287,8.356,14.648,20.288,24.657c0,0,36.972,29.937,61.977,55.935c16.517,16.896,21.48,22.326,21.48,22.326
	c10.241,11.162,8.161,26.929-4.638,35.049l-79.447,50.428c-12.774,8.105-24.79,25.765-29.085,40.302l-24.812,96.338
	c-4.12,14.553-11.004,38.672-5.858,40.123c5.146,1.447,10.688-13.051,15.761-27.771l29.526-95.346
	c4.295-14.535,18.253-33.05,31.029-41.162l52.427-32.771c0,0,38.446-21.837,79.335-36.749l287.22-104.764
	c15.026-1.791,21.644,7.951,14.959,21.554l-116.109,248.313c-6.688,13.601-8.27,36.485-3.521,50.868l43.222,131.269
	c2.423,12.789-10.304,19.129-10.304,19.129h-0.004l-126.395,84.675h-0.001c-12.593,8.38-33.504,22.231-30.536,26.679
	c2.971,4.445,16.604-2.966,30.028-10.855l121.136-71.166c29.219-16.021,44.542-3.418,44.542-3.418l52.654,38.959
	c12.006,9.201,31.879,24.506,35.126,20.257c3.244-4.246-8.888-14.609-20.91-23.811l-44.925-36.664
	c-18.451-16-26.101-32.039-26.101-32.039l-46.616-141.562c-4.729-14.392-3.145-37.28,3.546-50.879l125.714-242.729
	c6.688-13.598,19.106-16.858,30.827-7.265l94.367,70.805c15.646,11.076,14.129,30.562,11.551,56.273l-5.956,66.629
	c-2.229,14.977-2.39,39.505-0.351,54.508l7.866,58.078c2.038,14.991,2.438,39.107-2.96,53.245l-88.322,235.137
	c-5.397,14.131-14.398,37.545-9.402,39.443s11.471-12.687,16.86-26.832l98.278-241.25c5.404-14.144,16.363-16.178,29.418-0.385
	l188.167,201.968c0,0,12.329,18.206,16.096,52.146l14.683,132.065h-0.002c1.072,15.087,4.004,39.944,9.336,39.558
	c5.334-0.391,5.041-16.344,3.957-31.443h-0.004l-13.659-146.15c0,0,1.129-17.766,19.704-14.396l114.531,17.532l0.004-0.002
	c15.02,1.816,39.912,4.874,40.547-0.431c0.632-5.309-15.086-8.059-30.117-9.86l-140.963-31.541l-230.309-241.312
	c-8.274-8.671-12.277-22.904-12.277-22.904l-10.383-61.472c-2.041-15.003-2.199-39.57,0.029-54.548l6.322-70.658
	c5.002-29.915,34.153-12.543,48.291-7.146l71.816,23.827c14.138,5.397,30.779,21.116,36.964,34.947l67.793,151.509
	c6.187,13.833,23.35,27.697,38.188,30.82l120.909,25.549c14.832,3.122,40.155,13.619,51.65,23.472l101.076,86.644
	c11.562,9.759,30.693,25.977,34.135,21.888c3.442-4.091-8.188-15.014-19.769-24.769l-106.68-97.596
	c-11.503-9.853-36.768-24.516-51.593-27.64l-116.026-24.508c-14.822-3.13-31.995-16.992-38.176-30.824l-67.052-149.856
	c-6.188-13.826-22.816-29.552-36.976-34.941l-104.842-39.994c-14.14-5.405-35.302-17.661-47.003-27.261l-101.42-83.121
	c-15.5-13.534-19.852-14.892-20.316-27.072c-0.267-1.896-0.445-17.908-0.249-33.05l7.526-159.688
	C2665,1672.875,2664.347,1656.546,2684.033,1666.667"/>
<path id="inside3" fill="none" stroke="#010101" stroke-miterlimit="10" d="M2690.281,1137.355
	c3.604-16.144-13.799-21.947-13.799-21.947l-6.468-2.229l-82.479-32.323c0,0-19.306-9.263-39.32,11.373l-109.062,105.152
	c-10.375,11.011-27.537,29.302-31.423,25.631c-3.884-3.673,5.709-15.869,15.737-27.783l103.275-114.071
	c17.303-19.112-5.596-29.872-5.596-29.872l-143.228-63.8c-13.544-6.741-35.409-6.134-48.579,1.349l-135.854,72.018
	c0,0-19.422,13.676-76.688,17.161c-14.979,2.209-37.425,5.346-38.21,0.059c-0.784-5.288,24.043-8.873,39.012-11.066
	c48.346-6.262,68.689-17.386,68.689-17.386l132.321-76.992c13.164-7.484,22.423-25.916,20.597-40.944l-11.476-94.004
	c-1.836-15.026-12.954-35.131-24.72-44.669l-92.94-79.64c-11.998-9.235-24.103-19.628-20.844-23.868
	c3.255-4.238,23.088,11.118,35.068,20.354l97.043,73.006c11.771,9.535,22.893,29.628,24.745,44.666l12.59,103.076
	c1.841,15.024,14.445,32.838,27.997,39.59l221.396,90.069c0,0,20.082,7.287,25.838-12.584l38.065-131.413
	c5.761-21.384-10.221-37.482-10.221-37.482s-15.938-18.029-37.774-36.577c-30.045-29.262-51.675-54.38-51.675-54.38
	c-9.879-11.458-26.295-30.421-22.243-33.905c4.055-3.484,15.194,7.319,26.008,18.527c0,0,32.433,34.802,60.104,57.942
	c18.001,15.303,23.763,19.879,23.763,19.879c17.729,16.047,27.888,11.609,36.537-8.366l37.392-82.853
	c6.06-13.859,16.062-36.862,20.955-34.715c4.896,2.148-0.028,16.866-5.461,31.46l-26.797,73.519c0,0-17.76,41.238-29.798,83.063
	l-34.707,151.46c0,0-2.45,15.797,16.455,20.852l161.625,27.796c0,0,25.396,4.425,37.838-15.817c0,0,68.847-111.998,68.847-111.997
	c8.061-12.812,17.567-35.342,21.161-50.046l52.572-277.023c3.172-14.792,8.379-39.326,13.604-38.197
	c5.225,1.13,3.336,16.531,0.927,31.918l-32.437,251.099c-3.584,14.701-1.271,44.896,32.743,48.588l46.179,2.637
	c15.146,0.351,37.996,1.695,52.623-2.223l51.912-13.846c14.637-3.896,31.719-18.368,37.998-32.151l46.168-101.582
	c9.182-24.64,55.424-125.011,55.424-125.011l13.64-143.805c-0.097-15.143,0.662-31.076,6.008-31.112
	c5.346-0.039,5.426,25.042,5.505,40.171h0.002l-3.049,115.827c-1.016,18.852,16.752,17.747,16.752,17.747l143.29-31.856V645.8
	c14.846-2.971,30.638-5.256,31.69-0.016c1.053,5.241-23.242,11.262-38.074,14.218l-0.002-0.003L3369.6,692.537
	c-14.882,2.703-32.196,16.188-38.482,29.954l-90.352,184.494c-6.258,13.786,0.657,28.009,15.366,31.6l242.113,62.728
	c14.708,3.576,29.99,8.174,28.729,13.368c-1.258,5.194-25.613-0.806-40.311-4.392l-244.203-55.012
	c-14.701-3.589-38.719-3.334-53.343,0.564l-56.638,15.078c-14.629,3.905-38.98,6.817-54.117,6.479l-66.854,2.437
	c-15.125-0.316-46.331,5.685-54.384,18.507l-58.427,102.492c-8.055,12.828-3.26,24.74,11.064,29.673l214.812,79.026
	c0,0,22.079,6.922,48.164-5.315l53.416-22.569c13.753-6.326,28.588-12.203,30.823-7.352c2.234,4.856-20.582,15.27-34.332,21.578
	l-59.058,28.327c0,0-18.306,7.651-17.803,40.975l6.269,140.354c0.695,15.559,0.873,31.076-4.445,31.621s-7.786-24.417-9.307-39.469
	l0.002-0.002l-15.75-151.315l0.002-0.004c0,0,0.35-14.213-12.09-18.049l-203.849-66.617c-36.637-13.979-48.329-15.854-48.329-15.854
	l-127.375-22.091c0,0-19.78-4.987-27.686,18.835l-28.451,85.74c-3.416,10.345-2.348,26.842,2.387,36.661l36.062,80.354
	c4.978,9.693,9.666,20.172,6.246,21.934c-3.418,1.759-11.617-14.321-16.582-24.01l-40.768-77.295
	c-4.737-9.819-5.812-26.31-2.404-36.666L2690.281,1137.355"/>
<path id="inside1" fill="none" stroke="#010101" stroke-miterlimit="10" d="M4239.419,660.547l-217.567,260.008
	c-9.373,11.893-29.379,22.737-44.459,24.075l-50.168,6.906c0,0-22.482,3.571-12.809-20.461c18.102-33.809-5.375-65.216-5.375-65.216
	c-7.739-12.999-108.706-190.934-113.294-188.19c-4.587,2.743,80.883,183.703,92.432,205.452c0,0,11.232,18.96,2.261,32.051
	l-229.668,394.819c0,0-12.2,25.601-25.781,3.026l-76.854-130.225c-6.751-13.55-6.086-35.362,1.493-48.464l52.034-89.868
	c7.579-13.117,10.803-35.854,7.146-50.558l-33.496-116.728c-4-14.59-10.584-38.792-15.732-37.37
	c-5.153,1.421-1.752,17.012,2.266,31.608l26.227,119.552c3.646,14.7,0.413,37.445-7.175,50.546l-47.457,81.952
	c-7.596,13.099-26.086,22.233-41.103,20.28l-152-18.238c0,0-22.94-3.374-65.307-27.494c-13.271-7.264-35.246-19.354-37.809-14.663
	c-2.557,4.694,17.25,15.712,30.536,22.97c47.814,31.71,71.554,32.485,71.554,32.485l151.826,24.34
	c15.021,1.959,32.84,14.645,39.594,28.183c-0.002,0,76.216,147.604,76.216,147.604c7.875,15.25-8.121,16.174-8.121,16.174
	L3402.785,1389c-15,2.05-31.075,15.496-35.734,29.92l-60.072,185.793c-4.652,14.425-20.218,30.131-34.574,34.933l-90.27,36.163
	c-14.15,5.348-37.631,14.164-35.736,19.162c1.898,4.998,16.848,0.826,31.698-3.854l101.439-33.415
	c14.363-4.811,37.336-3.466,51.037,2.978l88.847,37.838c13.601,6.62,36.133,17.646,38.463,12.836
	c2.332-4.811-10.961-12.817-24.56-20.404l-90.24-45.859c-13.709-6.438-21.112-23.479-16.461-37.899l55.158-170.631
	c4.655-14.405,20.738-27.854,35.742-29.905l197.954-23.728c19.152-2.295,18.917,17.604,18.917,17.604l-29.478,309.752
	c-0.445,15.131-7.273,46.881-17.344,58.189L3458.936,1912.9c-10.061,11.309-30.643,21.69-45.723,23.046l-199.693,19.896
	c-15.048,1.553-40.004,4.072-39.446,9.392c0.557,5.313,16.073,5.106,31.627,4.379l201.854-13.604
	c15.08-1.369,26.676,9.849,25.771,24.974l-18.169,302.396c-0.91,15.129,9.562,32.759,23.271,39.192l175.596,83.119
	c13.498,6.827,35.854,18.198,38.263,13.429c2.4-4.773-10.763-12.988-24.245-20.784l-169.418-87.765
	c-13.701-6.438-24.176-24.045-23.277-39.168l17.832-297.235c0.903-15.132,9.896-36.732,19.972-48.042l123.71-138.865
	c10.064-11.308,26.142-10.964,35.713,0.752l189.124,231.575c9.575,11.737,13.025,32.932,7.663,47.085l-10.354,27.326
	c-5.365,14.156-22.136,25.646-37.277,25.51l-86.358,3.181c-15.14-0.127-33.291,0.125-33.342,5.449
	c-0.05,5.346,14.348,6.919,29.48,7.051l82.89,3.664c15.133,0.138,23.147,11.813,17.784,25.998l-28.602,97.534
	c-5.992,17.772,8.312,40.025,8.312,40.025l45.607,85.378c8.027,12.818,21.295,34.104,25.822,31.265
	c4.523-2.845-2.506-16.681-10.021-30.319l-49.472-92.701c0,0-9.255-17.164-0.878-39.295l68.53-193.724
	c5.353-14.179,1.904-35.371-7.681-47.083l-201.118-246.23c-9.586-11.711-13.644-38.56-13.187-53.689l38.575-312.312
	c2.052-16.62,19.291-15.018,19.291-15.018l2.243,0.146l155.427,9.886c15.121,0.906,35.355,11.244,36.461,26.352l94.189,282.284
	c10.729,35.127,0.101,48.979-12.19,65.982c0,0-6.93,9.062-28.322,28.126c-29.34,29.967-50.366,55.591-50.366,55.591
	c-9.604,11.689-25.564,31.038-21.433,34.423c4.138,3.39,15.019-7.678,25.562-19.139c0,0,31.597-35.562,58.711-59.354
	c17.632-15.727,23.282-20.438,23.282-20.438c11.619-9.721,27.271-6.922,34.8,6.234l46.741,81.672
	c7.517,13.133,24.604,25.941,38.929,30.896l95.103,29.193c14.354,4.779,38.133,12.761,39.813,7.687
	c1.683-5.072-12.547-11.271-27.021-17.013l-93.896-33.859c-14.324-4.954-32.182-19.743-39.698-32.876l-30.343-53.871
	c0,0-20.057-39.402-33.084-80.934l-91.517-291.706c-1.104-15.095,8.933-21.257,22.211-13.959l242.746,127.345
	c13.279,7.303,36.068,9.928,50.652,5.844l133.107-37.172c12.889-1.84,18.637,11.166,18.637,11.166v0.004l78.805,130.134l0.002,0.002
	c7.797,12.964,20.681,34.484,25.254,31.724c4.578-2.764-2.203-16.722-9.471-30.491l-65.553-124.266
	c-14.67-29.922-1.383-44.651-1.383-44.651l41.328-50.817c9.74-11.571,25.938-30.726,21.842-34.162
	c-4.094-3.436-15,8.211-24.738,19.801l-38.682,43.2c-16.826,17.701-33.199,24.607-33.199,24.607l-143.547,40.096
	c-14.592,4.063-37.383,1.436-50.662-5.87l-236.726-136.683c-13.274-7.302-15.971-19.856-5.849-31.125l75.045-91.029
	c10.121-11.264,41.896-11.858,56.744-8.966l66.287,8.997c14.855,2.912,39.354,4.192,54.432,2.84l58.377-5.201
	c15.072-1.351,38.785,2.497,52.66,8.538l231.248,95.836c13.871,6.039,36.849,16.103,38.974,11.196
	c2.125-4.905-12.146-12.039-26.03-18.069l-227.875-103.083c-13.881-6.046-18.272-21.242-9.756-33.756l63.102-92.711
	c8.538-12.494,27.9-22.83,43.025-22.957l131.529-10.264l-0.001,0.005c15.124-0.387,40.087-2.176,39.94-7.521
	c-0.146-5.344-16.095-5.784-31.229-5.389v0.002l-146.624,6.964c0,0-17.696-1.939-13.481-20.344l22.75-113.61l-0.002-0.002
	c2.502-14.921,6.696-39.648,1.424-40.522c-5.271-0.875-8.737,14.698-11.225,29.634l-37.954,139.374c0,0-5.294,17.339-18.541,40.055
	l-62.812,92.224c-8.535,12.513-27.836,23.858-42.922,25.203l-53.512,4.794c-15.082,1.367-37.37-3.854-52.232-6.78l-45.055-10.472
	c-32.888-9.437-30.018-39.583-23.979-53.457l19.724-61.946c6.042-13.875,22.504-29.781,36.602-35.326l154.451-60.791
	c14.103-5.547,28.734-22.062,32.535-36.741l31.051-119.615c3.795-14.674,15.438-39.492,25.81-50.525l42.661-43.8
	c10.833-10.561,28.826-28.033,25.088-31.854c-3.738-3.82-15.734,6.698-26.562,17.279l-54.602,48.989
	c-10.369,11.04-26.175,35.607-29.973,50.274l-29.787,114.784c-3.806,14.664-18.438,31.184-32.537,36.725l-152.769,60.128
	c-14.097,5.547-30.563,21.443-36.597,35.34l-44.748,102.902c-6.046,13.877-19.254,34.457-29.383,45.707l-87.67,97.516
	c-14.229,14.862-15.782,19.147-27.976,19.056c-1.906,0.181-17.91-0.372-33.024-1.263l-159.175-14.819c0,0-16.341-0.097-5.329-19.299
	l187.663-327.267c7.011-13.406,23.963-28.659,39.032-30.007l73.375-15.999c15.077-1.371,36.862-12.603,46.227-24.511
	l211.059-264.397c9.186-12.021,24.451-31.922,20.197-35.161C4258.939,636.358,4248.598,648.507,4239.419,660.547"/>
<polygon id="simpleinside4" fill="#ED1C24" points="3215.705,2301.419 3039.462,2252.607 2948.8,2068.691 2796.594,2004.129 
	2636.329,1873.188 2654.368,1632.463 3055.284,1842.064 3114.171,2101.235 3115.02,2101.042 3056.27,1842.463 3131.059,1870.511 
	3131.25,1870.583 3321.838,1762.363 3321.407,1761.604 3131.174,1869.624 3055.842,1841.372 2654.87,1631.742 2858.795,1508.25 
	2993.741,1577.322 2993.891,1577.4 3163.113,1531.576 3162.885,1530.734 2993.989,1576.469 2859.232,1507.496 2874.927,1308.507 
	2912.194,1226.539 2911.4,1226.178 2874.102,1308.216 2874.07,1308.286 2858.359,1507.495 2654.292,1631.073 2603.76,1370.941 
	2368.016,1304.516 2304.827,1153.334 2304.021,1153.67 2367.22,1304.871 2302.645,1447.446 2303.439,1447.805 2367.938,1305.4 
	2603.008,1371.634 2653.45,1631.311 2260.158,1614.515 2060.05,1441.913 2033.982,1196.952 2033.115,1197.044 2059.171,1441.88 
	1785.395,1582.483 1785.793,1583.259 2059.573,1442.654 2259.33,1614.954 1991.35,1856.523 1896.788,1832.966 1892.829,1688.59 
	1891.957,1688.613 1895.91,1832.746 1743.625,1794.808 1743.452,1794.765 1619.583,1867.189 1620.023,1867.941 1743.586,1795.696 
	1991.365,1857.425 1991.59,1857.48 2260.148,1615.39 2653.515,1632.186 2635.464,1873.062 2278.507,1995.148 2145.47,1875.661 
	2144.888,1876.311 2277.688,1995.583 2143.105,2080.921 2142.966,2081.009 2100.839,2225.914 2101.676,2226.156 2143.711,2081.57 
	2278.596,1996.04 2635.08,1874.115 2495.229,2193.956 2495.166,2194.098 2545.001,2370.963 2373.189,2473.275 2373.635,2474.027 
	2545.477,2371.695 2640.342,2446.264 2640.88,2445.579 2545.891,2370.912 2496.089,2194.162 2636.046,1874.083 2795.898,2004.688 
	2777.175,2135.6 2794.068,2247.814 2678.827,2542.186 2679.639,2542.503 2794.671,2248.665 3030.148,2498.404 3047.706,2693.545 
	3048.574,2693.467 3031.393,2502.504 3207.045,2533.293 3207.195,2532.436 3031.312,2501.605 3031.004,2498.176 3030.991,2498.025 
	2794.927,2247.665 2778.055,2135.595 2796.717,2005.127 2948.162,2069.369 3038.765,2253.167 3038.852,2253.342 3215.285,2302.208 
	3360.438,2426.883 3361.006,2426.221 3215.779,2301.484 "/>
<polygon id="simpleinside3" fill="#ED1C24" points="3333.046,692.453 3524.411,648.288 3524.216,647.439 3333.202,691.523 
	3341.165,517.327 3340.295,517.287 3332.309,691.972 3219.143,936.254 3111.88,964.617 2967.661,961.777 2978.931,942.736 
	2978.972,942.665 3028.268,630.07 3027.407,629.935 2978.137,942.365 2867.246,1129.716 2664.188,1093.543 2636.852,1082.031 
	2687.156,886.506 2751.508,732.848 2750.702,732.51 2686.602,885.583 2556.521,759.44 2555.914,760.066 2686.268,886.474 
	2636.04,1081.688 2351.038,961.669 2329.786,808.689 2199.167,697.521 2198.602,698.184 2328.969,809.138 2350.169,961.742 
	2177.155,1060.468 2086.982,1076.523 2087.135,1077.38 2177.382,1061.312 2177.455,1061.3 2350.67,962.459 2567.5,1053.771 
	2413.725,1214.773 2414.355,1215.375 2568.357,1054.133 2663.895,1094.364 2663.938,1094.383 2705.852,1101.849 2663.393,1247.634 
	2663.346,1247.791 2713.721,1356.675 2714.513,1356.309 2664.275,1247.721 2706.715,1102.002 2867.322,1130.61 3132.105,1224.295 
	3146.968,1418.906 3147.837,1418.838 3133.246,1227.773 3246.377,1180.305 3246.04,1179.5 3133.176,1226.858 3132.954,1223.947 
	3132.934,1223.663 2868.11,1129.971 2967.15,962.638 3111.923,965.491 3111.982,965.492 3219.457,937.074 3514.831,1011.577 
	3515.044,1010.732 3220.07,936.33 "/>
<polygon id="simpleinside2" fill="#ED1C24" points="1879.649,528.667 1878.906,529.125 1989.003,708.354 1994.416,747.317 
	1804.176,1026.944 1557.221,1098.352 1509.735,738.465 1581.316,676.605 1701.123,753.041 1701.593,752.306 1582.004,676.011 
	1701.271,572.941 1701.408,572.822 1711.021,427.42 1710.151,427.363 1700.562,572.401 1508.988,737.959 1508.811,738.113 
	1556.4,1098.792 1318.323,1415.216 1133.393,1270.867 1232.388,903.155 1403.843,859.562 1403.629,858.719 1232.504,902.226 
	1240.188,771.503 1240.191,771.443 1232.73,736.779 1232.709,736.679 1145.237,626.856 1144.555,627.399 1231.9,737.062 
	1239.312,771.511 1231.6,902.725 1132.646,1270.285 1118.602,1259.322 964.037,985.185 963.996,985.111 931.242,958.799 
	931.179,958.75 773.712,906.816 785.62,707.156 784.75,707.104 772.839,906.804 657.836,944.729 658.109,945.555 773.257,907.584 
	930.757,959.528 963.319,985.686 1117.628,1259.37 923.129,1325.84 811.438,1217.483 811.387,1217.434 729.358,1177.812 
	555.11,924.032 554.391,924.525 728.411,1177.971 565.954,1251.372 393.802,1157.493 393.385,1158.257 565.233,1251.971 
	442.207,1383.109 442.844,1383.706 566.195,1252.22 729.058,1178.636 810.882,1218.158 922.346,1326.294 805.127,1413.524 
	591.112,1381.512 590.918,1381.483 451.351,1498.811 311.101,1547.373 311.387,1548.198 451.713,1499.607 451.79,1499.581 
	591.177,1382.404 805.177,1414.414 805.356,1414.441 923.222,1326.729 1118.182,1260.101 1317.605,1415.763 908.91,1632.013 
	794.479,1584.066 794.333,1584.005 541.981,1660.746 453.598,1691.798 453.885,1692.62 542.253,1661.574 794.286,1584.93 
	908.083,1632.612 858.315,1672.097 836.894,1894.09 837.762,1894.174 859.146,1672.55 909.171,1632.86 1317.947,1416.569 
	1310.615,1654.992 1168.692,1735.107 1116.344,1890.962 1117.171,1891.24 1169.412,1735.701 1310.997,1655.778 1467.095,1784.592 
	1509.843,1856.027 1510.591,1855.58 1467.803,1784.08 1467.766,1784.017 1311.486,1655.05 1318.821,1416.485 1563.854,1521.355 
	1564.096,1521.458 1755.406,1365.194 1911.556,1396.821 1911.729,1395.967 1755.561,1364.335 1674.146,1233.84 1673.407,1234.3 
	1754.717,1364.63 1563.953,1520.45 1319.087,1415.652 1557.117,1099.289 1804.396,1027.788 2026.556,1148.539 2026.972,1147.773 
	1805.079,1027.167 1995.23,747.669 1995.325,747.528 1989.841,708.052 "/>
<polygon id="simpleinside1" fill="#ED1C24" points="4570.482,1096.408 4570.4,1095.541 4373.816,1114.075 4413.562,939.276 
	4412.711,939.083 4372.852,1114.39 4279.645,1252.976 4177.177,1267.21 4033.025,1232.887 4076.661,1118.202 4097.605,1092.534 
	4268.764,1020.382 4302.156,986.553 4332.982,859.896 4360.225,815.843 4426.236,752.908 4425.637,752.279 4359.581,815.251 
	4332.205,859.498 4332.169,859.556 4301.366,986.112 4268.346,1019.614 4097.167,1091.771 4097.066,1091.814 4075.941,1117.705 
	4075.898,1117.759 4032.061,1232.971 3898.633,1392.101 3654.32,1362.91 3870.466,983.127 3874.951,973.725 4006.018,947.773 
	4006.17,947.743 4251.602,654.814 4250.936,654.254 4005.698,946.947 3875.42,972.744 3907.27,905.972 3907.326,905.854 
	3903.578,878.876 3820.66,725.638 3819.893,726.055 3902.736,879.152 3906.427,905.715 3869.693,982.724 3653.616,1362.384 
	3535.52,1155.697 3605.347,1032.303 3610.264,1010.221 3610.287,1010.124 3572.795,854.347 3571.948,854.551 3609.393,1010.132 
	3604.559,1031.93 3534.785,1155.227 3331.438,1126.886 3256.566,1088.927 3256.172,1089.704 3331.107,1127.696 3331.173,1127.729 
	3534.747,1156.101 3652.918,1362.92 3404.758,1397.395 3371.412,1431.227 3309.503,1637.729 3161.094,1689.102 3161.38,1689.926 
	3309.827,1638.539 3442.913,1704.429 3443.299,1703.65 3310.379,1637.84 3372.184,1431.683 3405.171,1398.217 3653.125,1363.771 
	3613.229,1753.206 3441.107,1944.118 3189.607,1963.225 3189.674,1964.093 3440.86,1945.01 3427.402,2303.561 3427.39,2303.839 
	3639.777,2411.028 3640.17,2410.252 3428.284,2303.312 3441.744,1944.711 3613.634,1754.058 3833.38,2020.476 3842.684,2049.748 
	3811.161,2131.604 3675.45,2128.068 3675.427,2128.939 3810.877,2132.468 3768.51,2275.559 3768.46,2275.725 3835.094,2406.559 
	3835.872,2406.165 3769.395,2275.639 3811.864,2132.205 3843.607,2049.777 3834.184,2020.13 3834.159,2020.051 3614.1,1753.254 
	3654.005,1363.749 3884.915,1391.342 3992.495,1740.503 3999.491,1754.72 3932.114,1815.883 3866.917,1887.129 3867.559,1887.717 
	3932.729,1816.5 3999.891,1755.536 4056.261,1870.104 4056.297,1870.174 4090.746,1902.413 4090.814,1902.477 4211.557,1943.243 
	4211.834,1942.417 4091.273,1901.711 4057.008,1869.646 3993.302,1740.183 3885.861,1391.455 3898.686,1392.986 4204.713,1550.198 
	4204.859,1550.273 4378.062,1505.99 4473.26,1679.014 4474.023,1678.593 4378.816,1505.551 4456.084,1423.736 4455.451,1423.138 
	4378.052,1505.092 4204.965,1549.346 3899.501,1392.424 4032.604,1233.681 4177.055,1268.077 4279.831,1253.83 4550.197,1376.37 
	4550.559,1375.575 4280.547,1253.196 4373.504,1114.98 "/>
</svg>
