<?xml version="1.0" encoding="utf-8"?>
<!-- Generator: Adobe Illustrator 15.0.0, SVG Export Plug-In . SVG Version: 6.00 Build 0)  -->
<!DOCTYPE svg PUBLIC "-//W3C//DTD SVG 1.1//EN" "http://www.w3.org/Graphics/SVG/1.1/DTD/svg11.dtd">
<svg version="1.1" id="Layer_1" xmlns="http://www.w3.org/2000/svg" xmlns:xlink="http://www.w3.org/1999/xlink" x="0px" y="0px"
	 width="1300px" height="800px" viewBox="0 0 1300 800" enable-background="new 0 0 1300 800" xml:space="preserve">
<path id="table" fill="#FFFFFF" stroke="#000000" stroke-miterlimit="10" d="M1226.348,475.295
	c-50.137,34.91-99.46,79.472-125.871,134.738c-5.17,10.816-24.867,45.979-24.867,45.979c-39.002,66.355-99.712,75.219-99.712,75.219
	c-176.554,33.754-297.43-120.153-473.229-155.145c0,0-48.601-7.625-79.833,13.024c-93.604,61.892-182.174,29.581-232.46-42.207
	c-32.809-46.842-78.334-93.386-138.643-125.96c-30.444-16.444-39.963-48.34-39.963-56.398c0-103.994,150.604-159.779,260.555-140.79
	c104.388,18.028,128.94-36.568,143.965-46.228c27.127-17.444,68.484-9.275,68.484-9.275c57.146,6.183,74.708-17.926,74.708-17.926
	c90.621-137.38,207.128-94.153,341.619-15.399c134.488,78.761,192.845,85.872,192.845,85.872s98.854,23.886,141.498,58.634
	C1320.773,348.96,1303.207,421.774,1226.348,475.295z"/>
<polygon id="outside" fill="none" stroke="#000000" points="37.473,312.817 129.12,245.289 225.589,232.425 322.06,243.68 
	399.235,219.563 434.607,182.583 560.019,177.759 596.999,118.27 669.352,74.858 769.036,82.897 960.369,192.229 1119.545,245.289 
	1220.839,287.092 1270.681,343.366 1264.25,420.542 1166.172,491.286 1095.428,571.678 1050.408,666.541 970.016,721.207 
	854.252,713.167 613.077,592.58 518.215,562.031 424.961,566.854 330.099,610.267 232.021,574.894 154.845,471.993 43.904,397.155 
	24.61,349.797 "/>
<polygon id="inside1" fill="#FFFFFF" stroke="#000000" stroke-miterlimit="10" points="859.5,381.5 829.5,452.5 760.5,489.5 
	771.5,497.5 834.5,461.5 859.5,502.5 847.5,592.5 788.5,617.5 792.5,630.5 859.5,605.5 934.5,621.5 934.5,604.5 861.5,592.5 
	877.5,508.604 943.5,506 981.5,540.5 997.5,529.5 962.5,495.5 887.5,489.5 863.5,456.5 879,412.5 954.5,398.032 997.5,413.5 
	1006.5,400 957.5,386.5 966.5,343.5 947.5,336.5 947.5,381.5 883.5,398.032 876.5,354.5 893.5,277.5 950.5,258.5 943.5,247.5 
	874.5,267.5 836.5,242.604 827.5,256.5 872.5,279.5 866.5,333.5 808.5,335.5 809.5,347.5 862.5,345.5 "/>
</svg>
