<?xml version="1.0" encoding="utf-8"?>
<!-- Generator: Adobe Illustrator 15.0.0, SVG Export Plug-In . SVG Version: 6.00 Build 0)  -->
<!DOCTYPE svg PUBLIC "-//W3C//DTD SVG 1.1//EN" "http://www.w3.org/Graphics/SVG/1.1/DTD/svg11.dtd">
<svg version="1.1" id="Layer_1" xmlns="http://www.w3.org/2000/svg" xmlns:xlink="http://www.w3.org/1999/xlink" x="0px" y="0px"
	 width="1000px" height="800px" viewBox="0 0 1000 800" enable-background="new 0 0 1000 800" xml:space="preserve">
<path fill="none" stroke="#000000" stroke-miterlimit="10" d="M19.341,450.562c13.787-11.365,22.577-34.16,31.382-48.832
	c23.494-39.143,46.287-79.202,65.513-120.055c9.646-20.496,18.646-55.687,39.84-70.978c26.15-18.866,63.414,1.518,91.088,7.947
	c27.322,6.348,34.835,8.334,52.802-9.883c16.708-16.94,26.818-31.997,47.23-47.621c27.609-21.133,58.154-38.385,88.754-56.011
	c76.033-43.796,182.653-128.016,283.264-92.268c31.792,11.296,44.097,35.609,65.983,56.295
	c33.338,31.516,78.959,49.873,111.512,82.795c62.501,63.211,100.185,127.901,96.05,212.945c-1.601,32.921-4.823,65.856-6.864,98.751
	c-2.483,40.009-16.239,77.967-28.128,116.653c-15.558,50.638-41.702,99.749-64.474,148.274
	c-14.408,30.704-24.703,68.479-72.38,49.932c-39.385-15.32-77.045-41.144-111.177-63.524
	c-48.956-32.099-94.379-64.974-135.59-103.979c-14.022-13.27-26.333-21.748-48.185-14.983
	c-23.688,7.333-50.485,32.668-70.263,45.536c-33.656,21.899-67.206,43.9-101.391,65.178c-46.836,29.154-90.502,71.95-149.743,83.285
	c-56.827,10.873-85.239-24.986-100.881-67.734c-10.344-28.267-25.51-61.692-29.544-91.186c-1.284-9.392-1.172-19.945-1.719-29.484
	c-0.929-16.157,7.727-32.246,4.945-47.703C73.072,530.053-23.221,476.677,19.341,450.562"/>
<polygon fill="none" stroke="#000000" stroke-miterlimit="10" points="131.227,732.496 96.062,545.101 33.467,470.115 
	41.746,455.538 161.901,233.886 182.215,223.73 292.227,241.29 380.551,161.973 529.419,71.981 664.21,25.092 725.284,38.727 
	767.449,79.725 881.245,165.345 972.396,331.572 942.562,561.176 854.706,755.385 833.144,759.924 583.988,593.527 536.932,571.562 
	475.811,602.016 219.41,764.998 177.662,770.064 "/>
</svg>
